<svg xmlns="http://www.w3.org/2000/svg" viewBox="2 4 96 96" fill="none" role="img" aria-label="GLIA logo">
  <g stroke="#2dd4bf" stroke-width="2" fill="#2dd4bf" stroke-linecap="round" stroke-linejoin="round">
    <path d="M60 31 57 20" fill="none"/><path d="M57 20 49 13" fill="none"/><path d="M57 20 62 10" fill="none"/><path d="M58 16 64 14" fill="none"/>
    <circle cx="49" cy="13" r="1.7" stroke="none"/><circle cx="62" cy="10" r="1.7" stroke="none"/><circle cx="64" cy="14" r="1.5" stroke="none"/>
    <path d="M31 54 21 51" fill="none"/><path d="M21 51 14 48" fill="none"/><path d="M21 51 16 57" fill="none"/>
    <circle cx="14" cy="48" r="1.7" stroke="none"/><circle cx="16" cy="57" r="1.5" stroke="none"/>
    <path d="M36 80 28 88" fill="none"/><path d="M28 88 20 88" fill="none"/><path d="M28 88 25 96" fill="none"/>
    <circle cx="20" cy="88" r="1.7" stroke="none"/><circle cx="25" cy="96" r="1.5" stroke="none"/>
  </g>
  <path d="M86 45A30 30 0 1 0 87 73 H62" fill="none" stroke="#2dd4bf" stroke-width="4" stroke-linecap="round" stroke-linejoin="round"/>
  <path d="M52 54 58 60 52 66" fill="none" stroke="#4ade80" stroke-width="2.8" stroke-linecap="round" stroke-linejoin="round"/>
  <path d="M61 66 H68" fill="none" stroke="#4ade80" stroke-width="2.8" stroke-linecap="round"/>
</svg>
